:SAMPLES-PER-SECOND 30
:FULLY-SPECIFIED
:DEGREES
543
root  18.9345 32.8959 -49.136 -163.075 -2.54828 177.252
RightUpLeg  -27.1826 -13.9725 12.1053
RightLeg  25.5744 -13.1945 -5.23996
RightFoot  -11.5206 0.240438 2.76086
RightToes  -7.17359 -0.0247643 -0.0660105
Spine  8.18043 -0.432632 0.194358
Spine1  15.0415 0.26283 -3.02831
HEad  -20.9223 -47.5274 45.2225
LeftShoulder1  0 -2.42657e-020 -4.95415e-022
LeftArm  -41.4708 1.31562 -84.4074
LeftForeArm  41.9496 -19.6056 -3.58155
LeftHand  0.473095 -7.62626 -7.46588
RightShoulder  0 2.42657e-020 1.07489e-018
RightArm  -21.2085 7.89825 83.702
RightForeArm  48.5719 18.4987 3.35475
RightHand  0.490577 24.995 2.5837
LeftUpLeg  -21.7255 0.379986 6.63036
LeftLeg  53.1985 0.240565 0.273536
LeftFoot  10.034 -0.0116234 0.132395
LeftToes  -28.3707 2.34596e-006 -6.06653e-008
544
root  18.9925 32.8244 -49.5203 -163.186 -1.78412 176.397
RightUpLeg  -27.2845 -14.4493 11.1748
RightLeg  27.2601 -12.3791 -5.34615
RightFoot  -12.7905 0.283724 2.90865
RightToes  -7.40747 -0.0239296 -0.0687043
Spine  8.73597 0.0446714 0.363167
Spine1  15.9364 1.35721 -2.90357
HEad  -18.1438 -47.1719 46.1664
LeftShoulder1  0 -2.42657e-020 -4.95415e-022
LeftArm  -40.3563 -1.67015 -85.2045
LeftForeArm  39.3862 -21.5081 -3.96766
LeftHand  0.579417 -8.03863 -8.60932
RightShoulder  0 2.42657e-020 1.07489e-018
RightArm  -25.6927 10.3678 82.6571
RightForeArm  51.7436 16.8017 3.01981
RightHand  -0.0955347 25.175 -0.0578366
LeftUpLeg  -27.7164 -2.46144 4.9646
LeftLeg  59.9501 -3.1259 -4.67926
LeftFoot  6.52293 0.0305766 -0.536579
LeftToes  -30.4146 2.34596e-006 -6.06653e-008
545
root  19.0842 32.8131 -49.9338 -163.102 -0.767181 175.47
RightUpLeg  -27.2523 -13.9558 10.0891
RightLeg  28.503 -12.0137 -5.50107
RightFoot  -13.5476 0.314334 3.02362
RightToes  -7.88807 -0.0232078 -0.0730522
Spine  9.17652 0.558229 0.334308
Spine1  16.6131 2.62008 -3.10257
HEad  -16.7261 -46.6771 48.3056
LeftShoulder1  0 -2.42657e-020 -4.95415e-022
LeftArm  -38.3004 -3.88216 -85.1781
LeftForeArm  36.7966 -22.948 -4.26725
LeftHand  0.577801 -7.68198 -8.96804
RightShoulder  0 2.42657e-020 1.07489e-018
RightArm  -32.5088 12.9521 82.2193
RightForeArm  56.5422 14.6552 2.60256
RightHand  -0.694349 24.6972 -2.80156
LeftUpLeg  -33.6609 -4.76385 3.21074
LeftLeg  62.3357 -3.53932 -5.79858
LeftFoot  4.0177 0.0109817 -0.313095
LeftToes  -33.1033 2.34596e-006 -6.06653e-008
546
root  19.15 32.8314 -50.3954 -163.058 0.425751 174.406
RightUpLeg  -26.8687 -13.238 8.74286
RightLeg  29.2255 -11.8686 -5.61646
RightFoot  -14.0831 0.34065 3.13502
RightToes  -8.66034 -0.022624 -0.0800067
Spine  9.55103 1.09834 0.129296
Spine1  17.1619 4.04369 -3.63576
HEad  -16.162 -46.4929 50.8061
LeftShoulder1  0 -2.42657e-020 -4.95415e-022
LeftArm  -35.6692 -5.36383 -84.2205
LeftForeArm  36.3857 -23.6719 -4.41938
LeftHand  0.578607 -7.92913 -8.71154
RightShoulder  0 2.42657e-020 1.07489e-018
RightArm  -40.7126 15.4035 82.0998
RightForeArm  61.2758 12.5153 2.194
RightHand  -1.1741 23.2914 -5.32362
LeftUpLeg  -38.8533 -6.56593 1.45619
LeftLeg  60.0686 -2.83927 -4.27221
LeftFoot  1.40043 -0.00122561 0.100273
LeftToes  -31.2257 2.34596e-006 -6.06653e-008
547
root  19.2269 32.8385 -50.9085 -163.19 1.86514 173.534
RightUpLeg  -26.2226 -11.8337 7.45751
RightLeg  29.9733 -12.2252 -5.97551
RightFoot  -14.7056 0.391603 3.41176
RightToes  -8.88859 -0.0222033 -0.0820545
Spine  9.87384 1.64953 -0.0705782
Spine1  17.6504 5.56796 -4.21554
HEad  -16.6115 -46.7395 52.6992
LeftShoulder1  0 -2.42657e-020 -4.95415e-022
LeftArm  -33.902 -6.13526 -82.8286
LeftForeArm  37.8083 -23.8325 -4.45184
LeftHand  0.603851 -8.26518 -8.72002
RightShoulder  0 2.42657e-020 1.07489e-018
RightArm  -47.339 17.5243 81.8725
RightForeArm  64.1958 10.7743 1.86834
RightHand  -1.51531 21.8387 -7.47493
LeftUpLeg  -42.6071 -8.02543 0.0660256
LeftLeg  53.2052 -1.942 -2.28233
LeftFoot  -0.603163 0.00159293 0.302617
LeftToes  -28.4643 2.34596e-006 -6.06653e-008
548
root  19.3583 32.7993 -51.5455 -163.691 3.97348 173.109
RightUpLeg  -25.0713 -9.52753 6.50992
RightLeg  30.7943 -12.9343 -6.54102
RightFoot  -15.4291 0.46704 3.82442
RightToes  -8.70517 -0.0219707 -0.0804092
Spine  10.2485 2.31433 -0.249113
Spine1  18.2757 7.44241 -4.98863
HEad  -16.4261 -46.98 53.0528
LeftShoulder1  0 -2.42657e-020 -4.95415e-022
LeftArm  -32.5072 -6.12645 -80.9298
LeftForeArm  38.6939 -23.7373 -4.4308
LeftHand  0.559122 -8.25728 -8.11088
RightShoulder  0 2.42657e-020 1.07489e-018
RightArm  -50.1735 19.4858 81.7287
RightForeArm  64.6311 9.43365 1.62446
RightHand  -1.57654 20.5807 -8.29997
LeftUpLeg  -44.2901 -9.01041 -0.679202
LeftLeg  42.5937 -1.22933 -0.998016
LeftFoot  -1.75321 0.0049916 0.326221
LeftToes  -27.8704 2.34596e-006 -6.06653e-008
549
root  19.632 32.7007 -52.3236 -164.227 6.22272 173.714
RightUpLeg  -23.2075 -6.76955 6.77775
RightLeg  30.9667 -13.8347 -7.03392
RightFoot  -16.0206 0.543467 4.23823
RightToes  -7.50162 -0.0219514 -0.0695573
Spine  10.4568 2.92681 -0.167433
Spine1  18.7354 9.24134 -5.54563
HEad  -14.9925 -46.952 51.8173
LeftShoulder1  0 -2.42657e-020 -4.95415e-022
LeftArm  -32.668 -5.06781 -79.0194
LeftForeArm  39.1192 -23.9043 -4.4656
LeftHand  0.523104 -7.90486 -7.93701
RightShoulder  0 2.42657e-020 1.07489e-018
RightArm  -49.8488 21.3384 81.9106
RightForeArm  64.2916 8.1514 1.39489
RightHand  -1.43591 20.2777 -7.64932
LeftUpLeg  -44.8501 -9.05375 -0.31693
LeftLeg  31.0119 -2.9097 -1.50662
LeftFoot  -1.88438 0.00557091 0.338734
LeftToes  -26.2229 2.34596e-006 -6.06653e-008
550
root  20.0237 32.5295 -53.1204 -164.155 9.24168 175.124
RightUpLeg  -21.8651 -2.58262 7.86696
RightLeg  31.5579 -14.8023 -7.69818
RightFoot  -16.4368 0.617696 4.65259
RightToes  -7.20709 -0.0221702 -0.0668872
Spine  10.3044 3.44459 -0.0291106
Spine1  18.5928 10.7265 -5.94986
HEad  -13.9487 -46.3525 50.9768
LeftShoulder1  0 -2.42657e-020 -4.95415e-022
LeftArm  -33.9135 -2.1324 -77.1865
LeftForeArm  39.319 -26.5582 -5.03948
LeftHand  0.491836 -7.26839 -8.1097
RightShoulder  0 2.42657e-020 1.07489e-018
RightArm  -47.5767 22.5864 83.0547
RightForeArm  64.5762 8.0288 1.37227
RightHand  -1.14856 21.2209 -5.75715
LeftUpLeg  -45.3668 -7.00043 0.13383
LeftLeg  21.3006 -8.76856 -2.7742
LeftFoot  -2.05199 0.00875253 0.488713
LeftToes  -32.0717 2.34596e-006 -6.06653e-008
551
root  20.4361 32.263 -53.9293 -164.073 13.0411 176.642
RightUpLeg  -21.3036 2.20083 8.95237
RightLeg  34.1836 -15.2391 -8.80577
RightFoot  -17.0756 0.708443 5.09415
RightToes  -7.57395 -0.0235221 -0.0702121
Spine  10.0659 3.76842 -0.197064
Spine1  18.1209 11.6242 -6.57385
HEad  -13.9558 -46.2012 51.8315
LeftShoulder1  0 -2.42657e-020 -4.95415e-022
LeftArm  -34.9576 1.13458 -74.8788
LeftForeArm  39.8729 -28.1985 -5.40753
LeftHand  0.478438 -7.16818 -8.00482
RightShoulder  0 2.42657e-020 1.07489e-018
RightArm  -43.9057 23.0106 85.2598
RightForeArm  62.6727 8.97984 1.54733
RightHand  -0.824538 22.6596 -3.7446
LeftUpLeg  -45.639 -4.48706 0.492303
LeftLeg  17.2289 -15.2324 -3.62428
LeftFoot  -3.58184 0.0343091 1.09723
LeftToes  -30.004 2.34596e-006 -6.06653e-008
552
root  20.8835 31.9457 -54.9196 -164.947 16.4074 177.694
RightUpLeg  -20.4868 5.02419 9.85611
RightLeg  38.6442 -14.5466 -9.97049
RightFoot  -17.1321 0.717724 5.13991
RightToes  -11.5196 -0.0393936 -0.105394
Spine  10.0314 3.52835 -0.5302
Spine1  17.8169 11.351 -7.50912
HEad  -14.1404 -46.6423 53.2613
LeftShoulder1  0 -2.42657e-020 -4.95415e-022
LeftArm  -36.5909 3.60589 -72.2993
LeftForeArm  42.4219 -27.4682 -5.23873
LeftHand  0.546713 -7.43263 -8.78012
RightShoulder  0 2.42657e-020 1.07489e-018
RightArm  -42.3129 22.7869 88.1568
RightForeArm  60.5968 9.72672 1.68668
RightHand  -0.587156 23.612 -2.43918
LeftUpLeg  -44.8399 -7.31609 3.4304
LeftLeg  20.1162 -13.9768 -4.07737
LeftFoot  -3.32706 0.0282131 0.971415
LeftToes  -26.9333 2.34596e-006 -6.06653e-008
553
root  21.2375 31.6068 -55.9408 -166.355 19.8142 177.853
RightUpLeg  -21.2197 2.72467 9.50416
RightLeg  45.666 -10.0978 -8.99285
RightFoot  -15.7709 0.462222 3.71408
RightToes  -21.0168 -0.087199 -0.184947
Spine  10.0312 2.92435 -1.11309
Spine1  17.3681 10.3785 -8.93214
HEad  -15.2318 -46.4565 55.3006
LeftShoulder1  0 -2.42657e-020 -4.95415e-022
LeftArm  -40.0891 4.69726 -69.8821
LeftForeArm  48.0209 -24.2488 -4.52621
LeftHand  0.662378 -7.73459 -10.1538
RightShoulder  0 2.42657e-020 1.07489e-018
RightArm  -45.541 22.0161 91.3924
RightForeArm  60.8703 10.1631 1.76504
RightHand  -0.622844 23.6316 -2.60732
LeftUpLeg  -44.8264 -13.8198 7.51321
LeftLeg  24.3019 -11.4456 -4.27305
LeftFoot  2.94809 0.00967287 -0.375908
LeftToes  -28.9705 2.34596e-006 -6.06653e-008
554
root  21.6897 31.3658 -56.8447 -167.459 22.3878 177.712
RightUpLeg  -23.8574 -0.751825 8.64793
RightLeg  54.4386 -5.68971 -6.97731
RightFoot  -10.0596 0.132809 1.88657
RightToes  -37.8689 -0.201686 -0.30277
Spine  9.95205 2.2261 -1.84946
Spine1  16.75 9.08849 -10.3721
HEad  -16.7422 -46.2719 58.1114
LeftShoulder1  0 -2.42657e-020 -4.95415e-022
LeftArm  -42.8715 3.28356 -66.7086
LeftForeArm  55.2858 -17.9563 -3.23515
LeftHand  0.721099 -7.54519 -11.2831
RightShoulder  0 2.42657e-020 1.07489e-018
RightArm  -48.4618 20.3419 94.0242
RightForeArm  60.1962 10.4923 1.82626
RightHand  -1.01472 23.3214 -4.5452
LeftUpLeg  -45.6692 -15.6044 8.55429
LeftLeg  30.6284 -11.3513 -5.71748
LeftFoot  7.2577 0.0767458 -1.21008
LeftToes  -32.7331 2.34596e-006 -6.06653e-008
